<svg width="75" height="67" viewBox="0 0 75 67" fill="none" xmlns="http://www.w3.org/2000/svg">
<path fill-rule="evenodd" clip-rule="evenodd" d="M46.2182 2.35618C44.1302 4.44418 43.8702 5.86918 43.2632 18.5152C42.8972 26.1422 42.6162 37.1502 42.6382 42.9752L42.6782 53.5672L52.1482 31.5672C62.1682 8.28718 62.4932 6.75618 58.3502 2.31718C55.4512 -0.788822 49.3432 -0.768823 46.2182 2.35618ZM55.6642 4.10218C58.7582 5.75818 58.0222 9.69718 52.0172 23.6212C48.9472 30.7392 46.3592 36.6402 46.2672 36.7352C46.1742 36.8292 46.2402 30.3052 46.4142 22.2372C46.6452 11.5232 47.1232 6.96018 48.1872 5.31718C49.7542 2.89718 52.5612 2.44118 55.6642 4.10218ZM3.34522 14.0512C0.333224 16.4212 -0.751776 20.0162 0.529224 23.3872C1.43522 25.7682 34.5012 57.4972 35.2732 56.7262C36.0772 55.9212 16.4822 15.4802 14.4822 13.8172C11.6812 11.4892 6.46322 11.5992 3.34522 14.0512ZM11.7222 16.1332C13.2542 16.9532 25.5982 40.6422 25.5982 42.7622C25.5982 43.7312 21.0032 39.8122 12.5802 31.6592C2.94223 22.3302 1.68122 19.5232 5.82122 16.6242C8.45222 14.7802 9.09423 14.7272 11.7222 16.1332ZM65.8632 47.7942C63.3352 50.0192 51.2752 66.0782 51.7642 66.5672C51.9632 66.7662 57.0702 63.8802 63.1122 60.1552C74.0542 53.4082 76.3782 50.7412 73.3962 48.3522C70.7252 46.2112 67.8982 46.0022 65.8632 47.7942ZM70.5862 50.8172C70.5792 51.2292 68.9412 52.6252 66.9462 53.9182L63.3182 56.2692L65.5262 53.1682C67.5202 50.3682 70.6172 48.9292 70.5862 50.8172Z" fill="#F8931F"/>
</svg>
