<svg width="1175" height="92" viewBox="0 0 1175 92" fill="none" xmlns="http://www.w3.org/2000/svg">
<path d="M24 77.3638C24 77.3638 128.884 50.5566 180.5 47.3638C277.5 41.3638 336.5 73.7275 347.5 75.8638C358.5 78 413.5 101.364 536.5 66.8638C659.5 32.3638 674 -13.3715 782 8.86379C890 31.0991 951.5 52.8638 997.5 62.3638C1043.5 71.8638 1088.5 63.5 1110 53.3638C1131.5 43.2276 1130 44.3638 1152.5 23.3638" stroke="#1BBC9B" stroke-dasharray="6 6"/>
<circle cx="12" cy="80" r="11.5" stroke="#1BBC9B"/>
<path d="M1175 0.495699C1174.99 0.367185 1174.94 0.238988 1174.85 0.152873C1174.71 0.00896061 1174.47 -0.0411898 1174.28 0.036277L1148.33 10.5842C1148.14 10.66 1148.02 10.8354 1148 11.0363C1147.99 11.2372 1148.09 11.4285 1148.26 11.5293L1152.87 14.1948C1152.87 14.1948 1156.8 22.6814 1156.8 22.6861C1156.96 23.031 1157.46 23.0906 1157.69 22.7944C1157.7 22.7927 1157.7 22.7913 1157.7 22.7897L1160.83 18.7945C1160.83 18.7945 1165.77 21.6518 1165.77 21.6553C1166.04 21.8079 1166.4 21.6967 1166.53 21.3981C1166.53 21.3981 1174.96 0.73274 1174.97 0.72425C1174.99 0.654429 1175 0.575011 1175 0.495699ZM1149.72 11.1556L1169.22 3.23251L1153.37 13.2664L1149.72 11.1556ZM1157.68 16.2038C1157.6 16.2812 1157.54 16.4002 1157.53 16.5125L1157 20.59L1154 14.1188L1170.52 3.65523C1170.52 3.65523 1157.69 16.1973 1157.68 16.2038ZM1158.06 20.613L1158.49 17.4417L1159.9 18.2612L1158.06 20.613ZM1165.78 20.4393L1158.92 16.4723L1166.05 9.50378L1173.03 2.67885L1165.78 20.4393Z" fill="#1BBC9B"/>
<path d="M1161.77 21.9861C1161.67 21.8844 1161.53 21.8337 1161.4 21.8337C1161.26 21.8337 1161.13 21.8846 1161.02 21.9861L1158.41 24.5967C1158.21 24.8025 1158.21 25.1367 1158.41 25.3425C1158.61 25.5423 1158.96 25.5413 1159.16 25.3425L1161.77 22.7319C1161.98 22.5262 1161.98 22.1919 1161.77 21.9861Z" fill="#1BBC9B"/>
<path d="M1152.01 15.7628C1151.81 15.5615 1151.47 15.5626 1151.27 15.7628C1151.27 15.7628 1149.78 17.253 1149.77 17.2543C1149.57 17.4579 1149.57 17.7971 1149.77 18.0005C1149.87 18.1004 1150.01 18.1499 1150.15 18.1498C1150.28 18.1497 1150.42 18.0997 1150.52 18.0005L1152.01 16.5085C1152.22 16.3029 1152.22 15.9685 1152.01 15.7628Z" fill="#1BBC9B"/>
<path d="M1157.28 27.0001C1157.57 27.0001 1157.81 26.764 1157.81 26.4727C1157.81 26.1815 1157.57 25.9454 1157.28 25.9454C1156.99 25.9454 1156.76 26.1815 1156.76 26.4727C1156.76 26.764 1156.99 27.0001 1157.28 27.0001Z" fill="#1BBC9B"/>
<path d="M1148.63 19.6694C1148.92 19.6694 1149.16 19.4333 1149.16 19.1421C1149.16 18.8508 1148.92 18.6147 1148.63 18.6147C1148.34 18.6147 1148.11 18.8508 1148.11 19.1421C1148.11 19.4333 1148.34 19.6694 1148.63 19.6694Z" fill="#1BBC9B"/>
</svg>
