<svg xmlns="http://www.w3.org/2000/svg" width="424" height="513" viewBox="0 0 424 513"><rect width="100%" height="100%" fill="#DDDDDD"/><path fill="#999999" d="M93.53 261.485h12.32v-13.24q0-1.88.25-4.15zm18.34 0h5.09v4q0 .56-.36.97t-1.04.41h-3.69v9.88h-6.02v-9.88H88.77q-.7 0-1.23-.44-.54-.43-.68-1.08l-.72-3.5 19.18-25.62h6.55zm23.6 8.82h10.39q1.12 0 1.78.63t.66 1.67v4.14h-27.78v-2.3q0-.7.29-1.47.3-.77.94-1.38l12.29-12.32q1.54-1.57 2.76-3t2.03-2.83 1.25-2.84q.43-1.44.43-3.04 0-1.45-.42-2.56-.42-1.1-1.19-1.86t-1.85-1.13q-1.07-.38-2.42-.38-1.23 0-2.28.35t-1.86.98-1.37 1.47-.84 1.85q-.48 1.28-1.24 1.7-.75.42-2.18.2l-3.64-.64q.42-2.92 1.62-5.11 1.21-2.2 3.01-3.67 1.81-1.47 4.15-2.21 2.34-.75 5.02-.75 2.8 0 5.13.83 2.32.83 3.97 2.34 1.66 1.51 2.58 3.64t.92 4.73q0 2.24-.65 4.14-.66 1.91-1.77 3.64-1.1 1.74-2.59 3.36-1.48 1.63-3.11 3.31l-9.12 9.32q1.31-.39 2.61-.6 1.31-.21 2.48-.21m23.02-8.82h12.32v-13.24q0-1.88.25-4.15zm18.34 0h5.09v4q0 .56-.36.97t-1.04.41h-3.69v9.88h-6.02v-9.88h-17.08q-.7 0-1.23-.44-.54-.43-.68-1.08l-.72-3.5 19.18-25.62h6.55zm49.59 5.99-3.67 3.61-9.49-9.49-9.58 9.55-3.67-3.61 9.58-9.61-9.13-9.12 3.64-3.64 9.13 9.12 9.07-9.07 3.7 3.64-9.1 9.1zm29.42-24.95-1.42 8.43q1.34-.28 2.57-.4 1.23-.13 2.38-.13 3.19 0 5.63.95t4.09 2.63 2.49 3.94q.84 2.25.84 4.86 0 3.22-1.13 5.88-1.14 2.66-3.15 4.55-2.02 1.89-4.78 2.92-2.76 1.04-6 1.04-1.91 0-3.62-.39-1.7-.4-3.2-1.05-1.5-.66-2.77-1.52-1.28-.85-2.29-1.8l2.13-2.94q.67-.95 1.77-.95.7 0 1.42.44.73.45 1.67.98.94.54 2.21.98 1.28.45 3.07.45 1.9 0 3.36-.61 1.45-.62 2.42-1.73.97-1.1 1.46-2.63.49-1.52.49-3.32 0-3.3-1.92-5.16t-5.67-1.86q-2.89 0-5.91 1.06l-4.31-1.23 3.36-19.66h19.99v2.94q0 1.49-.92 2.41-.93.92-3.14.92zm41.39 29.04h7.28v5.18h-22.4v-5.18h8.2v-23.6q0-1.4.09-2.89l-5.83 4.87q-.5.4-.99.49-.49.1-.93.02-.43-.09-.77-.3-.33-.21-.5-.46l-2.18-2.99 12.34-10.5h5.69zm17.44-23.38-3.64-.64q.42-2.92 1.63-5.11 1.2-2.2 3.01-3.67 1.8-1.47 4.14-2.21 2.34-.75 5.03-.75 2.8 0 5.05.8t3.85 2.21q1.6 1.42 2.45 3.32.85 1.91.85 4.12 0 1.93-.43 3.4t-1.25 2.56q-.81 1.09-2.01 1.85-1.21.76-2.72 1.26 3.64 1.15 5.43 3.5 1.8 2.35 1.8 5.91 0 3.02-1.12 5.35-1.12 2.32-3.03 3.9-1.9 1.58-4.41 2.4-2.5.81-5.3.81-3.06 0-5.32-.7-2.27-.7-3.95-2.07-1.68-1.38-2.86-3.36-1.17-1.99-2.01-4.6l3.05-1.26q1.2-.5 2.25-.26t1.53 1.13q.5.98 1.1 1.93.61.96 1.45 1.7t1.97 1.2 2.7.46q1.77 0 3.08-.57 1.32-.57 2.2-1.5.88-.92 1.32-2.06.43-1.13.43-2.28 0-1.45-.31-2.64t-1.29-2.03-2.81-1.32-4.91-.48v-4.92q2.54-.03 4.22-.48t2.68-1.25q.99-.79 1.38-1.91.4-1.12.4-2.47 0-2.85-1.6-4.34-1.6-1.48-4.26-1.48-1.23 0-2.26.35-1.04.35-1.87.98-.82.63-1.38 1.47t-.84 1.85q-.48 1.28-1.25 1.7t-2.17.2"/></svg>