<svg width="31" height="40" viewBox="0 0 31 40" fill="none" xmlns="http://www.w3.org/2000/svg">
<path d="M28.8361 21.3615L6.68751 29.5407C10.7529 34.6303 15.1665 38.4244 15.1665 38.4244C15.1665 38.4244 25.0094 29.9631 28.8361 21.3615Z" fill="#1BBC9B"/>
<path d="M28.4845 7.93473L20.7578 10.7881C21.72 12.0076 22.296 13.5478 22.296 15.2241C22.296 19.1751 19.1046 22.3781 15.1679 22.3781C11.3174 22.3781 8.18188 19.3135 8.04627 15.4822L0.415902 18.3001C1.2792 21.6836 3.38901 25.201 5.7517 28.3307L29.5503 19.5423C30.0462 18.0761 30.334 16.6228 30.334 15.2241C30.334 12.5832 29.6634 10.0996 28.4845 7.93473Z" fill="#F8931F"/>
<path d="M15.1661 0C6.79005 0 0 6.81464 0 15.221C0 15.7575 0.0427571 16.3019 0.122848 16.852L8.16453 13.8823C8.7893 10.5714 11.6855 8.06711 15.1661 8.06711C16.8575 8.06711 18.4103 8.65956 19.6326 9.64735L27.7102 6.66444C24.9807 2.64185 20.381 0 15.1661 0Z" fill="#F8931F"/>
<path d="M19.8809 38.5717C19.8809 39.0667 17.8395 39.4679 15.3212 39.4679C12.803 39.4679 10.7615 39.0667 10.7615 38.5717C10.7615 38.0768 12.803 37.6757 15.3212 37.6757C17.8395 37.6757 19.8809 38.0768 19.8809 38.5717Z" fill="#1BBC9B"/>
<path d="M23.692 25.6918C20.7832 29.8176 17.1579 33.4572 15.1674 35.3365C14.0149 34.2493 12.3149 32.5727 10.5251 30.554L23.692 25.6918Z" fill="#1BBC9B"/>
<path d="M27.2879 10.8082C27.7955 12.216 28.0593 13.7136 28.0593 15.2227C28.0593 16.0139 27.939 16.8744 27.7009 17.7911L23.6544 19.2853C24.242 18.0543 24.5711 16.6763 24.5711 15.2227C24.5711 14.127 24.3778 13.0414 24.0097 12.0187L27.2879 10.8082Z" fill="#F8931F"/>
<path d="M6.35707 18.5376C6.84081 19.8353 7.60997 21.0192 8.62802 22.008C9.42431 22.781 10.3345 23.3973 11.3195 23.8405L6.57149 25.5939C5.08598 23.4751 3.97698 21.4973 3.25632 19.6827L6.35707 18.5376Z" fill="#F8931F"/>
<path d="M15.1673 2.28945C18.4155 2.28945 21.4996 3.51534 23.8494 5.66402L19.95 7.10399C18.5088 6.25038 16.8516 5.79019 15.1673 5.79019C11.1109 5.79019 7.56213 8.39746 6.2762 12.1534L2.37726 13.5934C2.73128 10.7565 4.00509 8.1331 6.05188 6.07889C8.48669 3.63511 11.7238 2.28945 15.1673 2.28945Z" fill="#F8931F"/>
</svg>
