<svg xmlns="http://www.w3.org/2000/svg" width="350" height="380" viewBox="0 0 350 380"><rect width="100%" height="100%" fill="#DDDDDD"/><path fill="#999999" d="m73.57 183.02-3.05-.54q.35-2.44 1.36-4.29 1.01-1.84 2.53-3.08 1.51-1.23 3.47-1.85 1.97-.63 4.22-.63 2.35 0 4.24.67 1.9.67 3.24 1.86t2.05 2.78q.72 1.6.72 3.46 0 1.62-.37 2.85-.36 1.24-1.04 2.15-.68.92-1.69 1.55-1.01.64-2.28 1.06 3.05.97 4.56 2.94 1.5 1.97 1.5 4.96 0 2.54-.94 4.49t-2.54 3.28q-1.6 1.32-3.7 2-2.1.69-4.45.69-2.56 0-4.47-.59-1.9-.59-3.31-1.74t-2.4-2.82q-.98-1.67-1.69-3.85l2.56-1.06q1.01-.43 1.89-.23t1.28.96q.43.82.93 1.62.51.8 1.21 1.42.71.62 1.66 1.01t2.27.39q1.48 0 2.58-.48 1.11-.49 1.85-1.26.74-.78 1.1-1.73.37-.95.37-1.91 0-1.23-.26-2.22-.26-1-1.08-1.71-.83-.7-2.37-1.1-1.53-.4-4.12-.4v-4.14q2.14-.02 3.55-.4 1.41-.37 2.24-1.04.84-.67 1.17-1.61t.33-2.07q0-2.4-1.34-3.64-1.34-1.25-3.58-1.25-1.03 0-1.9.29-.87.3-1.56.83-.7.53-1.17 1.23-.47.71-.7 1.55-.4 1.08-1.05 1.44-.64.35-1.82.16m32.41-4.75-1.2 7.08q1.13-.24 2.16-.34 1.04-.11 2-.11 2.68 0 4.72.8 2.05.8 3.43 2.21 1.39 1.41 2.1 3.3.7 1.89.7 4.08 0 2.7-.95 4.93t-2.64 3.82q-1.7 1.59-4.01 2.46-2.32.87-5.04.87-1.6 0-3.03-.33-1.44-.33-2.69-.88-1.26-.56-2.33-1.27-1.07-.72-1.92-1.52l1.79-2.47q.56-.8 1.48-.8.59 0 1.2.38t1.4.82q.78.45 1.85.83 1.07.37 2.58.37 1.59 0 2.82-.52 1.22-.51 2.03-1.44t1.22-2.21.41-2.78q0-2.78-1.61-4.34t-4.76-1.56q-2.42 0-4.95.89l-3.62-1.03 2.82-16.5h16.78v2.47q0 1.24-.78 2.02-.78.77-2.63.77zm42.6 11.73q0 4.44-.95 7.72t-2.63 5.42q-1.68 2.13-3.97 3.18t-4.95 1.05q-2.65 0-4.92-1.05t-3.94-3.18q-1.67-2.14-2.61-5.42t-.94-7.72q0-4.47.94-7.73.94-3.27 2.61-5.41t3.94-3.18q2.27-1.05 4.92-1.05 2.66 0 4.95 1.05 2.29 1.04 3.97 3.18t2.63 5.41q.95 3.26.95 7.73m-5.99 0q0-3.69-.54-6.11t-1.44-3.85q-.91-1.44-2.08-2.01-1.18-.58-2.45-.58-1.24 0-2.41.58-1.16.57-2.05 2.01-.9 1.43-1.42 3.85-.53 2.42-.53 6.11t.53 6.11q.52 2.42 1.42 3.85.89 1.44 2.05 2.01 1.17.58 2.41.58 1.27 0 2.45-.58 1.17-.57 2.08-2.01.9-1.43 1.44-3.85t.54-6.11m43.31 9.21-3.08 3.03-7.96-7.96-8.04 8.01-3.08-3.03 8.04-8.06-7.66-7.66 3.05-3.06 7.66 7.66 7.62-7.61 3.1 3.05-7.64 7.64zm19.55-16.19-3.05-.54q.35-2.44 1.36-4.29 1.01-1.84 2.53-3.08 1.51-1.23 3.48-1.85 1.96-.63 4.21-.63 2.35 0 4.25.67 1.89.67 3.23 1.86t2.05 2.78q.72 1.6.72 3.46 0 1.62-.36 2.85-.37 1.24-1.05 2.15-.68.92-1.69 1.55-1.01.64-2.28 1.06 3.05.97 4.56 2.94 1.5 1.97 1.5 4.96 0 2.54-.94 4.49t-2.54 3.28q-1.59 1.32-3.7 2-2.1.69-4.45.69-2.56 0-4.47-.59-1.9-.59-3.31-1.74t-2.4-2.82q-.98-1.67-1.69-3.85l2.56-1.06q1.01-.43 1.9-.23.88.2 1.28.96.42.82.92 1.62.51.8 1.21 1.42.71.62 1.66 1.01t2.27.39q1.48 0 2.58-.48 1.11-.49 1.85-1.26.74-.78 1.1-1.73.37-.95.37-1.91 0-1.23-.26-2.22-.26-1-1.08-1.71-.82-.7-2.36-1.1t-4.13-.4v-4.14q2.14-.02 3.55-.4 1.41-.37 2.24-1.04.84-.67 1.17-1.61t.33-2.07q0-2.4-1.34-3.64-1.34-1.25-3.57-1.25-1.04 0-1.91.29-.87.3-1.56.83t-1.16 1.23q-.47.71-.71 1.55-.4 1.08-1.04 1.44-.65.35-1.83.16m35.3 19.81q1.43 0 2.52-.41 1.08-.41 1.82-1.14t1.11-1.74q.38-1.01.38-2.18 0-2.8-1.55-4.24-1.55-1.43-4.28-1.43-2.72 0-4.28 1.43-1.55 1.44-1.55 4.24 0 1.17.38 2.18t1.12 1.74 1.82 1.14 2.51.41m0-25.83q-1.29 0-2.23.4t-1.56 1.07q-.63.67-.92 1.54t-.29 1.84q0 1.01.24 1.96.25.95.84 1.69.58.74 1.55 1.19.96.44 2.37.44t2.37-.44q.97-.45 1.56-1.19.58-.74.83-1.69t.25-1.96q0-.97-.31-1.84-.3-.87-.92-1.54-.61-.67-1.55-1.07t-2.23-.4m5.74 12.27q3.1 1.01 4.58 3.09t1.48 5.09q0 2.25-.86 4.09-.86 1.83-2.41 3.12-1.55 1.3-3.72 2-2.18.71-4.81.71t-4.8-.71q-2.18-.7-3.73-2-1.55-1.29-2.41-3.12-.86-1.84-.86-4.09 0-3.01 1.48-5.09 1.49-2.08 4.59-3.09-2.47-1.03-3.7-2.94-1.24-1.9-1.24-4.58 0-1.93.79-3.59.79-1.67 2.2-2.91 1.41-1.23 3.37-1.92 1.96-.7 4.31-.7t4.31.7q1.97.69 3.38 1.92 1.41 1.24 2.19 2.91.79 1.66.79 3.59 0 2.68-1.23 4.58-1.24 1.91-3.7 2.94m33.98.73q0 4.44-.96 7.72-.95 3.28-2.63 5.42-1.68 2.13-3.97 3.18t-4.95 1.05q-2.65 0-4.92-1.05t-3.94-3.18q-1.66-2.14-2.6-5.42t-.94-7.72q0-4.47.94-7.73.94-3.27 2.6-5.41 1.67-2.14 3.94-3.18 2.27-1.05 4.92-1.05 2.66 0 4.95 1.05 2.29 1.04 3.97 3.18t2.63 5.41q.96 3.26.96 7.73m-6 0q0-3.69-.54-6.11t-1.44-3.85q-.91-1.44-2.08-2.01-1.18-.58-2.45-.58-1.24 0-2.4.58-1.17.57-2.06 2.01-.89 1.43-1.42 3.85t-.53 6.11.53 6.11 1.42 3.85q.89 1.44 2.06 2.01 1.16.58 2.4.58 1.27 0 2.45-.58 1.17-.57 2.08-2.01.9-1.43 1.44-3.85t.54-6.11"/></svg>