<svg xmlns="http://www.w3.org/2000/svg" width="85" height="85" viewBox="0 0 85 85"><rect width="100%" height="100%" fill="#DDDDDD"/><path fill="#999999" d="M20.18 46.865q.49 0 .86-.14t.62-.38q.25-.25.38-.6.13-.34.13-.74 0-.95-.53-1.44t-1.46-.49-1.45.49q-.53.49-.53 1.44 0 .4.13.74.12.35.38.6.25.24.62.38.36.14.85.14m0-8.79q-.44 0-.76.14-.32.13-.53.36t-.31.53q-.1.29-.1.62 0 .34.08.67.09.32.29.57.2.26.52.41.33.15.81.15t.81-.15.53-.41q.2-.25.28-.57.09-.33.09-.67 0-.33-.11-.62-.1-.3-.31-.53t-.53-.36q-.32-.14-.76-.14m1.95 4.18q1.06.34 1.56 1.05.51.71.51 1.73 0 .77-.29 1.39-.3.63-.82 1.07-.53.44-1.27.68t-1.64.24q-.89 0-1.63-.24t-1.27-.68-.82-1.07q-.29-.62-.29-1.39 0-1.02.5-1.73t1.56-1.05q-.84-.35-1.26-1t-.42-1.56q0-.66.27-1.23.27-.56.75-.98t1.14-.66q.67-.24 1.47-.24t1.47.24 1.15.66.75.98q.26.57.26 1.23 0 .91-.42 1.56t-1.26 1m6.35-3.75-.41 2.41q.38-.08.74-.11.35-.04.68-.04.91 0 1.6.27.7.27 1.17.75t.71 1.13q.24.64.24 1.39 0 .92-.32 1.68t-.9 1.3-1.36.83q-.79.3-1.72.3-.54 0-1.03-.11-.49-.12-.92-.3-.43-.19-.79-.44-.36-.24-.65-.51l.61-.84q.19-.27.5-.27.2 0 .41.12.21.13.47.28.27.16.64.28.36.13.87.13.55 0 .96-.17.42-.18.69-.5.28-.31.42-.75.14-.43.14-.95 0-.94-.55-1.47t-1.62-.53q-.82 0-1.69.3l-1.23-.35.96-5.62h5.71v.84q0 .43-.26.69t-.9.26zm17.93 7.13-1.05 1.03-2.71-2.71-2.74 2.73-1.05-1.03 2.74-2.75-2.61-2.6 1.04-1.04 2.61 2.6 2.59-2.59 1.06 1.04-2.6 2.6zm9.39 1.23q.49 0 .85-.14.37-.14.62-.38.26-.25.38-.6.13-.34.13-.74 0-.95-.53-1.44-.52-.49-1.45-.49t-1.46.49-.53 1.44q0 .4.13.74.13.35.38.6.25.24.62.38t.86.14m0-8.79q-.44 0-.76.14-.32.13-.53.36-.22.23-.32.53-.1.29-.1.62 0 .34.09.67.08.32.28.57.2.26.53.41t.81.15.81-.15q.32-.15.52-.41.2-.25.29-.57.08-.33.08-.67 0-.33-.1-.62-.11-.3-.31-.53-.21-.23-.53-.36-.32-.14-.76-.14m1.95 4.18q1.06.34 1.56 1.05t.5 1.73q0 .77-.29 1.39-.29.63-.82 1.07t-1.27.68-1.63.24q-.9 0-1.64-.24t-1.27-.68q-.52-.44-.82-1.07-.29-.62-.29-1.39 0-1.02.51-1.73.5-.71 1.56-1.05-.84-.35-1.26-1t-.42-1.56q0-.66.26-1.23.27-.56.75-.98t1.15-.66 1.47-.24 1.47.24q.66.24 1.14.66t.75.98q.27.57.27 1.23 0 .91-.42 1.56t-1.26 1m6.34-3.75-.4 2.41q.38-.08.73-.11.35-.04.68-.04.91 0 1.61.27t1.17.75.71 1.13q.24.64.24 1.39 0 .92-.32 1.68-.33.76-.9 1.3-.58.54-1.37.83-.79.3-1.71.3-.55 0-1.04-.11-.48-.12-.91-.3-.43-.19-.79-.44-.37-.24-.66-.51l.61-.84q.19-.27.51-.27.2 0 .4.12.21.13.48.28.27.16.63.28.37.13.88.13.54 0 .96-.17.41-.18.69-.5.28-.31.42-.75.14-.43.14-.95 0-.94-.55-1.47t-1.62-.53q-.83 0-1.69.3l-1.23-.35.96-5.62h5.71v.84q0 .43-.26.69-.27.26-.9.26z"/></svg>