<svg xmlns="http://www.w3.org/2000/svg" width="424" height="292" viewBox="0 0 424 292"><rect width="100%" height="100%" fill="#DDDDDD"/><path fill="#999999" d="M93.505 151.21h12.32v-13.24q0-1.88.25-4.15zm18.34 0h5.09v4q0 .56-.36.97t-1.04.41h-3.69v9.88h-6.02v-9.88h-17.08q-.7 0-1.23-.44-.54-.43-.68-1.08l-.72-3.5 19.18-25.62h6.55zm23.6 8.82h10.39q1.12 0 1.78.63t.66 1.67v4.14h-27.78v-2.3q0-.7.29-1.47.3-.77.94-1.38l12.29-12.32q1.54-1.57 2.76-3t2.03-2.83 1.25-2.84q.43-1.44.43-3.04 0-1.45-.42-2.56-.42-1.1-1.19-1.86t-1.85-1.13q-1.07-.38-2.42-.38-1.23 0-2.28.35t-1.86.98-1.37 1.47-.84 1.85q-.48 1.28-1.24 1.7-.75.42-2.18.2l-3.64-.64q.42-2.92 1.62-5.11 1.21-2.2 3.01-3.67 1.81-1.47 4.15-2.21 2.34-.75 5.02-.75 2.8 0 5.13.83 2.32.83 3.97 2.34 1.66 1.51 2.58 3.64t.92 4.73q0 2.24-.65 4.14-.66 1.91-1.77 3.64-1.1 1.74-2.59 3.36-1.48 1.63-3.11 3.31l-9.12 9.32q1.31-.39 2.61-.6 1.31-.21 2.48-.21m23.02-8.82h12.32v-13.24q0-1.88.25-4.15zm18.34 0h5.09v4q0 .56-.36.97t-1.04.41h-3.69v9.88h-6.02v-9.88h-17.08q-.7 0-1.23-.44-.54-.43-.68-1.08l-.72-3.5 19.18-25.62h6.55zm49.59 5.99-3.67 3.61-9.49-9.49-9.58 9.55-3.67-3.61 9.58-9.61-9.13-9.12 3.64-3.64 9.13 9.12 9.07-9.07 3.7 3.64-9.1 9.1zm33.71 2.83h10.39q1.12 0 1.77.63.66.63.66 1.67v4.14h-27.77v-2.3q0-.7.29-1.47t.94-1.38l12.29-12.32q1.54-1.57 2.76-3t2.03-2.83 1.24-2.84q.44-1.44.44-3.04 0-1.45-.42-2.56-.42-1.1-1.19-1.86t-1.85-1.13q-1.08-.38-2.42-.38-1.23 0-2.28.35t-1.87.98q-.81.63-1.37 1.47t-.84 1.85q-.47 1.28-1.23 1.7t-2.18.2l-3.64-.64q.42-2.92 1.62-5.11 1.2-2.2 3.01-3.67t4.14-2.21q2.34-.75 5.03-.75 2.8 0 5.12.83 2.33.83 3.98 2.34t2.58 3.64q.92 2.13.92 4.73 0 2.24-.66 4.14-.66 1.91-1.76 3.64-1.11 1.74-2.59 3.36-1.49 1.63-3.11 3.31l-9.13 9.32q1.32-.39 2.62-.6t2.48-.21m24.64-21.9q0 3.39 1.75 5.17t4.97 1.78q1.68 0 2.99-.53 1.32-.54 2.22-1.46.89-.92 1.35-2.18.47-1.26.47-2.72 0-1.65-.51-2.95-.5-1.31-1.43-2.2-.92-.9-2.19-1.37-1.28-.48-2.79-.48-1.57 0-2.83.52t-2.15 1.44q-.9.92-1.38 2.2-.47 1.27-.47 2.78m-3.39 28.34 12.57-15.71q.48-.59.9-1.15t.81-1.12q-1.4.9-3.08 1.36t-3.53.46q-2.1 0-4.11-.72-2.02-.73-3.59-2.2t-2.53-3.64q-.97-2.17-.97-5.08 0-2.72 1.01-5.1t2.83-4.17 4.37-2.83q2.54-1.04 5.62-1.04 3.11 0 5.59.98t4.23 2.75q1.75 1.76 2.69 4.23.93 2.46.93 5.4 0 1.88-.32 3.56t-.91 3.23-1.43 3.04q-.84 1.48-1.87 2.94l-9.27 13.21q-.48.68-1.43 1.14t-2.15.46zm43.71-6.44h10.39q1.12 0 1.77.63.66.63.66 1.67v4.14h-27.77v-2.3q0-.7.29-1.47t.94-1.38l12.29-12.32q1.54-1.57 2.76-3t2.03-2.83 1.24-2.84q.44-1.44.44-3.04 0-1.45-.42-2.56-.42-1.1-1.19-1.86t-1.85-1.13q-1.08-.38-2.42-.38-1.23 0-2.28.35t-1.87.98q-.81.63-1.37 1.47t-.84 1.85q-.47 1.28-1.23 1.7t-2.18.2l-3.64-.64q.42-2.92 1.62-5.11 1.2-2.2 3.01-3.67t4.14-2.21q2.34-.75 5.03-.75 2.8 0 5.12.83 2.33.83 3.98 2.34t2.58 3.64q.92 2.13.92 4.73 0 2.24-.66 4.14-.66 1.91-1.76 3.64-1.11 1.74-2.59 3.36-1.49 1.63-3.11 3.31l-9.13 9.32q1.32-.39 2.62-.6t2.48-.21"/></svg>