<svg width="79" height="40" viewBox="0 0 79 40" fill="none" xmlns="http://www.w3.org/2000/svg">
<g clip-path="url(#clip0_124_83)">
<path d="M10.1689 28.5333C4.59556 28.5333 0 23.84 0 18.2667C0 12.6933 4.59556 8 10.1689 8C13.2 8 15.3511 9.27111 17.0133 10.8356L15.1556 12.7911C13.9822 11.6178 12.4178 10.8356 10.2667 10.8356C6.25778 10.8356 3.12889 14.16 3.12889 18.2667C3.12889 22.3733 6.25778 25.6978 10.2667 25.6978C12.9067 25.6978 14.3733 24.6222 15.2533 23.6444C16.0356 22.8622 16.5244 21.6889 16.72 19.9289H10.2667V17.0933H19.36C19.4578 17.5822 19.5556 18.1689 19.5556 18.8533C19.5556 21.0044 19.0667 23.7422 17.2089 25.6C15.3511 27.5556 13.1022 28.5333 10.1689 28.5333Z" fill="#4285F4"/>
<path d="M33.4401 21.7865C33.4401 25.5998 30.6046 28.3376 26.9868 28.3376C23.369 28.3376 20.5334 25.5998 20.5334 21.7865C20.5334 17.9731 23.369 15.2354 26.9868 15.2354C30.6046 15.2354 33.4401 17.9731 33.4401 21.7865ZM30.7023 21.7865C30.7023 19.342 29.0401 17.7776 27.0846 17.7776C25.2268 17.7776 23.4668 19.342 23.4668 21.7865C23.4668 24.1331 25.129 25.7954 27.0846 25.7954C28.9423 25.7954 30.7023 24.1331 30.7023 21.7865Z" fill="#EA4335"/>
<path d="M47.3244 21.7865C47.3244 25.5998 44.4888 28.3376 40.8711 28.3376C37.2533 28.3376 34.4177 25.5998 34.4177 21.7865C34.4177 17.9731 37.2533 15.2354 40.8711 15.2354C44.4888 15.2354 47.3244 17.9731 47.3244 21.7865ZM44.4888 21.7865C44.4888 19.342 42.8266 17.7776 40.8711 17.7776C39.0133 17.7776 37.2533 19.342 37.2533 21.7865C37.2533 24.1331 38.9155 25.7954 40.8711 25.7954C42.8266 25.7954 44.4888 24.1331 44.4888 21.7865Z" fill="#FBBC03"/>
<path d="M60.3288 15.6263V27.5552C60.3288 32.4441 57.6888 34.3997 54.3643 34.3997C51.2355 34.3997 49.4755 32.2486 48.6932 30.4886L51.1377 29.413C51.5288 30.4886 52.6043 31.7597 54.3643 31.7597C56.4177 31.7597 57.6888 30.3908 57.6888 27.9463V26.9686H57.591C57.0043 27.7508 55.831 28.533 54.2666 28.533C51.0399 28.533 48.2043 25.6975 48.2043 21.8841C48.2043 18.0708 51.0399 15.333 54.2666 15.333C55.831 15.333 56.9066 16.0175 57.591 16.8975H57.6888V15.6263H60.3288ZM57.8843 21.7863C57.8843 19.4397 56.4177 17.7775 54.4621 17.7775C52.6043 17.7775 51.0399 19.4397 51.0399 21.7863C51.0399 24.133 52.5066 25.7952 54.4621 25.7952C56.4177 25.7952 57.8843 24.133 57.8843 21.7863Z" fill="#4285F4"/>
<path d="M64.9245 9.0752V28.4352H62.1868V9.0752H64.9245Z" fill="#34A853"/>
<path d="M75.9733 23.9375L78.1244 25.5019C77.44 26.5775 75.68 28.4352 72.7467 28.4352C69.1289 28.4352 66.3911 25.5997 66.3911 21.8841C66.3911 17.973 69.1289 15.333 72.4533 15.333C75.7778 15.333 77.3422 18.0708 77.9289 19.5375L78.2222 20.2219L69.6178 23.8397C70.3022 25.2086 71.28 25.7952 72.7467 25.7952C74.2133 25.7952 75.1911 25.1108 75.9733 23.9375ZM69.2267 21.6886L74.8978 19.2441C74.5067 18.4619 73.6267 17.7775 72.5511 17.7775C71.0844 17.7775 69.1289 19.0486 69.2267 21.6886Z" fill="#EA4335"/>
</g>
<defs>
<clipPath id="clip0_124_83">
<rect width="79" height="40" fill="white"/>
</clipPath>
</defs>
</svg>
