<svg width="79" height="41" viewBox="0 0 79 41" fill="none" xmlns="http://www.w3.org/2000/svg">
<path d="M13.7666 33.4948V25.64L19.5352 9H17.0867L12.5815 22.2905L8.67373 11.3016H6L11.3083 25.5519V33.4948H13.7666Z" fill="#FF0000"/>
<path d="M24.3831 30.4294C23.9424 31.1052 23.1099 31.6635 22.2676 31.6635C21.0238 31.6635 20.4361 30.4882 20.4361 28.6861C20.4361 26.6686 21.0923 25.3366 24.0991 25.3366H24.3831V30.4294ZM26.7728 29.9593V22.604C26.7728 18.8138 25.2449 17.6385 22.4831 17.6385C20.9062 17.6385 19.4763 18.2849 18.7614 18.8725L19.2217 21.0174C20.0346 20.3024 21.0923 19.656 22.3264 19.656C23.6975 19.656 24.3831 20.5179 24.3831 22.5747V23.5051H24.0403C19.6624 23.5051 17.9485 25.6108 17.9485 28.9701C17.9485 32.0455 19.4763 33.7202 21.7093 33.7202C23.0805 33.7202 23.9424 33.1228 24.6279 32.2609H24.7846C24.814 32.6625 24.9119 33.162 25.0001 33.495H27.047C26.9295 32.7506 26.7728 31.448 26.7728 29.9593ZM32.2084 21.3602C32.7666 20.5865 33.6285 19.8127 34.6569 19.8127C35.5873 19.8127 36.1162 20.2143 36.1162 21.3896V33.495H38.5646V21.1741C38.5646 18.7844 37.4775 17.6385 35.4306 17.6385C33.9713 17.6385 32.796 18.5983 32.3553 19.1859H32.2084V17.8246H29.7795V33.495H32.2084V21.3602ZM45.7044 33.7202C46.9776 33.7202 47.8492 33.1228 48.5348 32.2609H48.6915L48.8776 33.495H50.6797V11.3018H48.2508V18.2261C47.7905 17.8833 47.0168 17.6385 46.2724 17.6385C43.1286 17.6385 40.9543 20.4592 40.9543 26.267C40.9543 31.1052 42.6389 33.7202 45.7044 33.7202ZM48.2508 30.4588C47.8492 31.0759 47.2028 31.6635 45.9884 31.6635C44.2157 31.6635 43.5399 29.4305 43.5399 25.7675C43.5399 22.5747 44.4704 19.6267 46.4193 19.6267C47.2322 19.6267 47.7611 19.8715 48.2508 20.371V30.4588ZM62.07 32.447L61.5117 30.5862C60.8947 31.0171 59.8957 31.6341 58.5344 31.6341C56.605 31.6341 55.6158 29.7732 55.6158 26.2376H62.1287V24.8958C62.1287 19.5875 60.4246 17.6385 57.8194 17.6385C54.4993 17.6385 53.0988 21.3014 53.0988 26.3258C53.0988 31.1444 55.0869 33.7202 58.3091 33.7202C59.8664 33.7202 61.0808 33.2207 62.07 32.447ZM57.8194 19.6267C59.2102 19.6267 59.6509 21.5757 59.6509 24.2494H55.6452C55.8019 21.4581 56.3308 19.6267 57.8194 19.6267ZM70.2969 17.8539L68.152 23.5345L66.1344 17.8539H63.6272L66.5752 25.3953L63.3138 33.495H65.7035L68.0638 27.0407L70.4829 33.495H73L69.7386 25.1799L72.6572 17.8539H70.2969Z" fill="black"/>
</svg>
