<svg xmlns="http://www.w3.org/2000/svg" width="312" height="385" viewBox="0 0 312 385"><rect width="100%" height="100%" fill="#DDDDDD"/><path fill="#999999" d="m66.005 186.26-2.73-.48q.32-2.19 1.22-3.84.9-1.64 2.26-2.75 1.35-1.1 3.11-1.66 1.75-.55 3.76-.55 2.1 0 3.8.6 1.69.59 2.88 1.66 1.2 1.06 1.84 2.48.64 1.43.64 3.09 0 1.45-.32 2.55-.33 1.11-.94 1.92-.61.82-1.51 1.39t-2.04.94q2.73.87 4.08 2.63 1.34 1.76 1.34 4.43 0 2.27-.84 4.01t-2.27 2.93-3.31 1.8-3.98.61q-2.28 0-3.99-.53-1.7-.52-2.96-1.55t-2.14-2.52-1.51-3.45l2.29-.94q.9-.38 1.69-.2t1.14.85q.38.73.83 1.45.45.71 1.08 1.27.63.55 1.49.9.85.35 2.02.35 1.32 0 2.31-.43t1.65-1.13q.66-.69.99-1.54.32-.85.32-1.71 0-1.09-.23-1.99-.23-.89-.96-1.52-.74-.63-2.11-.99-1.38-.35-3.69-.35v-3.7q1.91-.02 3.17-.36 1.26-.33 2.01-.93.74-.6 1.04-1.44.29-.84.29-1.85 0-2.14-1.2-3.25-1.19-1.11-3.19-1.11-.92 0-1.7.26t-1.4.73q-.62.48-1.04 1.11t-.63 1.38q-.35.97-.93 1.28-.58.32-1.63.15m35.64 17.53h5.46v3.89h-16.8v-3.89h6.15v-17.7q0-1.05.06-2.16l-4.36 3.65q-.38.3-.75.37t-.69.01q-.33-.06-.58-.22t-.38-.35l-1.64-2.24 9.27-7.88h4.26zm20.89-.94h7.79q.84 0 1.34.47.49.47.49 1.25v3.11h-20.83v-1.72q0-.53.22-1.1.22-.58.7-1.04l9.22-9.24q1.16-1.18 2.07-2.25t1.52-2.12.94-2.13q.32-1.09.32-2.28 0-1.09-.31-1.92-.32-.83-.89-1.4-.58-.57-1.39-.85t-1.82-.28q-.92 0-1.71.26t-1.39.73q-.61.48-1.03 1.11t-.63 1.38q-.36.97-.93 1.28-.56.32-1.64.15l-2.73-.48q.32-2.19 1.22-3.84.91-1.64 2.26-2.75 1.35-1.1 3.11-1.66 1.75-.55 3.77-.55 2.1 0 3.84.62t2.98 1.75 1.93 2.73q.7 1.6.7 3.55 0 1.68-.5 3.11-.49 1.43-1.32 2.73t-1.94 2.52-2.33 2.48l-6.85 6.99q.99-.3 1.97-.45.97-.16 1.85-.16m43.85-2.12-2.75 2.71-7.12-7.12-7.18 7.16-2.75-2.71 7.18-7.2-6.85-6.85 2.73-2.73 6.85 6.85 6.8-6.81 2.78 2.73-6.83 6.83zm17.47-14.47-2.73-.48q.32-2.19 1.22-3.84.9-1.64 2.26-2.75 1.35-1.1 3.11-1.66 1.75-.55 3.77-.55 2.1 0 3.79.6 1.69.59 2.88 1.66 1.2 1.06 1.84 2.48.64 1.43.64 3.09 0 1.45-.32 2.55-.33 1.11-.94 1.92-.61.82-1.51 1.39t-2.04.94q2.73.87 4.08 2.63 1.34 1.76 1.34 4.43 0 2.27-.84 4.01t-2.27 2.93q-1.42 1.19-3.3 1.8t-3.98.61q-2.29 0-3.99-.53-1.7-.52-2.96-1.55t-2.15-2.52q-.88-1.49-1.51-3.45l2.29-.94q.9-.38 1.69-.2t1.15.85q.37.73.83 1.45.45.71 1.08 1.27.63.55 1.48.9t2.02.35q1.33 0 2.31-.43.99-.43 1.65-1.13.66-.69.99-1.54.32-.85.32-1.71 0-1.09-.23-1.99-.23-.89-.96-1.52-.74-.63-2.11-.99-1.38-.35-3.69-.35v-3.7q1.91-.02 3.17-.36 1.26-.33 2.01-.93.74-.6 1.04-1.44.29-.84.29-1.85 0-2.14-1.2-3.25-1.19-1.11-3.19-1.11-.92 0-1.7.26t-1.39.73q-.62.48-1.04 1.11t-.63 1.38q-.36.97-.94 1.28-.58.32-1.63.15m31.55 17.7q1.28 0 2.24-.36.97-.37 1.63-1.02t1-1.56q.33-.9.33-1.95 0-2.5-1.38-3.78-1.39-1.28-3.82-1.28-2.44 0-3.83 1.28-1.38 1.28-1.38 3.78 0 1.05.33 1.95.34.91 1 1.56t1.63 1.02q.96.36 2.25.36m0-23.08q-1.16 0-2 .36t-1.4.96q-.55.59-.81 1.37-.27.78-.27 1.64 0 .9.22 1.75t.75 1.52q.52.66 1.38 1.06.87.39 2.13.39t2.12-.39q.86-.4 1.38-1.06.53-.67.75-1.52t.22-1.75q0-.86-.27-1.64-.28-.78-.82-1.37-.55-.6-1.39-.96t-1.99-.36m5.12 10.97q2.77.9 4.09 2.76 1.33 1.86 1.33 4.54 0 2.02-.77 3.66t-2.15 2.79q-1.39 1.16-3.33 1.79t-4.29.63q-2.36 0-4.3-.63t-3.33-1.79q-1.38-1.15-2.15-2.79t-.77-3.66q0-2.68 1.33-4.54 1.32-1.86 4.09-2.76-2.2-.93-3.31-2.63-1.1-1.7-1.1-4.09 0-1.73.71-3.22.7-1.49 1.96-2.59t3.01-1.72q1.76-.62 3.86-.62t3.85.62 3.01 1.72 1.97 2.59q.7 1.49.7 3.22 0 2.39-1.1 4.09-1.11 1.7-3.31 2.63m16.65-9.83-1.07 6.32q1.01-.21 1.93-.31.93-.09 1.79-.09 2.39 0 4.22.71 1.83.72 3.07 1.98t1.86 2.95q.63 1.69.63 3.64 0 2.42-.85 4.41-.85 2-2.36 3.41-1.51 1.42-3.58 2.2t-4.5.78q-1.43 0-2.71-.3-1.28-.29-2.41-.79-1.12-.49-2.08-1.13-.95-.64-1.71-1.35l1.6-2.21q.5-.71 1.32-.71.53 0 1.07.33.55.34 1.25.74.71.4 1.66.73.96.34 2.3.34 1.43 0 2.52-.46 1.09-.47 1.82-1.29.72-.83 1.09-1.98.37-1.14.37-2.49 0-2.48-1.44-3.87-1.44-1.4-4.25-1.4-2.17 0-4.44.8l-3.23-.92 2.52-14.75h14.99v2.21q0 1.11-.69 1.8-.69.7-2.35.7z"/></svg>