<svg xmlns="http://www.w3.org/2000/svg" width="840" height="415" viewBox="0 0 840 415"><rect width="100%" height="100%" fill="#DDDDDD"/><path fill="#999999" d="M200.805 237.805q3.38 0 5.94-.97 2.55-.98 4.3-2.7 1.74-1.72 2.63-4.1.89-2.39.89-5.16 0-6.61-3.66-9.99-3.67-3.39-10.1-3.39-6.44 0-10.1 3.39-3.67 3.38-3.67 9.99 0 2.77.89 5.16.89 2.38 2.64 4.1t4.3 2.7q2.55.97 5.94.97m0-61q-3.06 0-5.28.95-2.22.94-3.69 2.52t-2.16 3.64q-.69 2.05-.69 4.33 0 2.38.58 4.63t1.97 4q1.39 1.74 3.66 2.8 2.28 1.05 5.61 1.05t5.6-1.05q2.28-1.06 3.67-2.8 1.38-1.75 1.97-4 .58-2.25.58-4.63 0-2.28-.72-4.33-.72-2.06-2.17-3.64-1.44-1.58-3.66-2.52-2.22-.95-5.27-.95m13.54 28.97q7.32 2.39 10.82 7.3t3.5 12.02q0 5.32-2.03 9.65-2.02 4.33-5.69 7.39-3.66 3.05-8.79 4.71-5.14 1.67-11.35 1.67-6.22 0-11.35-1.67-5.14-1.66-8.8-4.71-3.66-3.06-5.69-7.39-2.02-4.33-2.02-9.65 0-7.11 3.49-12.02 3.5-4.91 10.82-7.3-5.82-2.44-8.74-6.93-2.91-4.5-2.91-10.83 0-4.55 1.86-8.49t5.19-6.85q3.33-2.92 7.96-4.55 4.64-1.64 10.19-1.64t10.18 1.64q4.64 1.63 7.97 4.55 3.33 2.91 5.18 6.85 1.86 3.94 1.86 8.49 0 6.33-2.91 10.83-2.91 4.49-8.74 6.93m33.74 11.6h24.42v-26.25q0-3.72.5-8.21zm36.36 0h10.1v7.94q0 1.11-.72 1.91-.73.81-2.06.81h-7.32v19.59h-11.94v-19.59h-33.85q-1.39 0-2.44-.86-1.06-.86-1.34-2.14l-1.44-6.94 38.02-50.78h12.99zm74.53-9.88q0 10.49-2.25 18.24-2.24 7.74-6.21 12.79t-9.38 7.52-11.68 2.47q-6.28 0-11.63-2.47-5.36-2.47-9.3-7.52t-6.16-12.79q-2.22-7.75-2.22-18.24 0-10.54 2.22-18.26 2.22-7.71 6.16-12.76t9.3-7.52q5.35-2.47 11.63-2.47 6.27 0 11.68 2.47t9.38 7.52 6.21 12.76q2.25 7.72 2.25 18.26m-14.15 0q0-8.71-1.28-14.43-1.27-5.71-3.41-9.1-2.14-3.38-4.91-4.74-2.78-1.36-5.77-1.36-2.95 0-5.69 1.36-2.75 1.36-4.86 4.74-2.11 3.39-3.36 9.1-1.25 5.72-1.25 14.43 0 8.72 1.25 14.43 1.25 5.72 3.36 9.11 2.11 3.38 4.86 4.74 2.74 1.36 5.69 1.36 2.99 0 5.77-1.36 2.77-1.36 4.91-4.74 2.14-3.39 3.41-9.11 1.28-5.71 1.28-14.43m102.29 21.76-7.27 7.16-18.82-18.82-18.98 18.93-7.27-7.16 18.98-19.04-18.09-18.09 7.21-7.21 18.1 18.09 17.98-17.98 7.32 7.21-18.03 18.04zm48.06-11.88h24.42v-26.25q0-3.72.5-8.21zm36.35 0h10.1v7.94q0 1.11-.72 1.91-.72.81-2.05.81h-7.33v19.59h-11.93v-19.59h-33.86q-1.38 0-2.44-.86-1.05-.86-1.33-2.14l-1.44-6.94 38.01-50.78h12.99zm55.95 19.98h14.43v10.27h-44.4v-10.27h16.26v-46.78q0-2.78.16-5.72l-11.54 9.66q-1 .77-1.97.97-.97.19-1.83.03-.86-.17-1.53-.59-.66-.41-1-.91l-4.33-5.94 24.48-20.81h11.27zm46.73-57.55-2.83 16.7q2.66-.55 5.1-.8t4.72-.25q6.33 0 11.15 1.89 4.83 1.88 8.11 5.21 3.27 3.33 4.94 7.8 1.66 4.47 1.66 9.63 0 6.38-2.25 11.66-2.24 5.27-6.24 9.01-4 3.75-9.46 5.8-5.47 2.06-11.91 2.06-3.77 0-7.16-.78-3.38-.78-6.35-2.08t-5.5-3q-2.52-1.69-4.52-3.58l4.22-5.82q1.33-1.89 3.5-1.89 1.38 0 2.83.89 1.44.88 3.3 1.94 1.86 1.05 4.38 1.94 2.53.89 6.08.89 3.77 0 6.66-1.22t4.8-3.41q1.92-2.2 2.89-5.22.97-3.03.97-6.58 0-6.55-3.8-10.24-3.81-3.69-11.24-3.69-5.72 0-11.71 2.11l-8.55-2.44 6.66-38.96h39.63v5.82q0 2.95-1.83 4.78-1.84 1.83-6.22 1.83z"/></svg>